<svg data-v-41e0831b="" data-v-e648039c="" x="0px" y="0px" viewBox="0 0 50.1314354 49.4648323"><defs data-v-41e0831b=""><clipPath data-v-41e0831b="" id="cut"><path data-v-41e0831b="" d="M25.0657082,49.4648323L25.0657082,49.4648323C7.7844591,49.4648323,0,40.5237274,0,28.3366642v-7.7919445 C0,9.2451239,7.5344591,0,25.0657082,0l0,0c17.3125,0,25.0657272,9.0549793,25.0657272,21.2737293v7.3129101 C50.1314354,40.3987274,42.1907082,49.4648323,25.0657082,49.4648323z"></path></clipPath></defs><path data-v-41e0831b="" d="M25.0657082,49.4648323L25.0657082,49.4648323C7.7844591,49.4648323,0,40.5237274,0,28.3366642v-7.7919445 C0,9.2451239,7.5344591,0,25.0657082,0l0,0c17.3125,0,25.0657272,9.0549793,25.0657272,21.2737293v7.3129101 C50.1314354,40.3987274,42.1907082,49.4648323,25.0657082,49.4648323z" class="bg accent-color-fill"></path><g data-v-41e0831b="" clip-path="url(#cut)"><g data-v-41e0831b="" class="group -group-1 -active"><path data-v-41e0831b="" d="M25.0696144,10.2087879c-10.4013662,0-14.7231436,5.3045654-14.7231436,12.5584106v3.930481 c0,7.2537823,4.3217773,12.5583477,14.7231436,12.5583477c0.4887695,0,1.8637695-0.0402832,1.8637695-0.0402832 c0.5500488,0,1,0.4500122,1,1v0.078064c0,0.2859497-0.1325684,0.5307007-0.3291016,0.7098389l0.0046387,0.0029297 c0,0-0.144043,0.1377563,0.1071777,0.1119995c1.732666-0.1607666,12.0688477-1.6541138,12.0688477-14.4208965V25.561388v-2.7941895 C39.7849464,15.5133533,35.2712746,10.2087879,25.0696144,10.2087879z M25.0657082,31.2968616 c-1.5014648,0-2.7697754-1.2681885-2.7697754-2.7698364c0-1.5013428,1.2683105-2.7695923,2.7697754-2.7695923 s2.7697754,1.2682495,2.7697754,2.7695923C27.8354836,30.0286732,26.567173,31.2968616,25.0657082,31.2968616z M25.0657082,23.8416004c-1.5014648,0-2.7697754-1.2681885-2.7697754-2.7698364 c0-1.5013428,1.2683105-2.7698364,2.7697754-2.7698364s2.7697754,1.2684937,2.7697754,2.7698364 C27.8354836,22.5734119,26.567173,23.8416004,25.0657082,23.8416004z" class="icon"></path></g></g><g data-v-41e0831b="" clip-path="url(#cut)"><g data-v-41e0831b="" class="group -group-2"><path data-v-41e0831b="" d="M25.0696144,10.2087879c-10.4013662,0-14.7231436,5.3045654-14.7231436,12.5584106v3.930481 c0,7.2537823,4.3217773,12.5583477,14.7231436,12.5583477c0.4887695,0,1.8637695-0.0402832,1.8637695-0.0402832 c0.5500488,0,1,0.4500122,1,1v0.078064c0,0.2859497-0.1325684,0.5307007-0.3291016,0.7098389l0.0046387,0.0029297 c0,0-0.144043,0.1377563,0.1071777,0.1119995c1.732666-0.1607666,12.0688477-1.6541138,12.0688477-14.4208965V25.561388v-2.7941895 C39.7849464,15.5133533,35.2712746,10.2087879,25.0696144,10.2087879z M25.0657082,31.2968616 c-1.5014648,0-2.7697754-1.2681885-2.7697754-2.7698364c0-1.5013428,1.2683105-2.7695923,2.7697754-2.7695923 s2.7697754,1.2682495,2.7697754,2.7695923C27.8354836,30.0286732,26.567173,31.2968616,25.0657082,31.2968616z M25.0657082,23.8416004c-1.5014648,0-2.7697754-1.2681885-2.7697754-2.7698364 c0-1.5013428,1.2683105-2.7698364,2.7697754-2.7698364s2.7697754,1.2684937,2.7697754,2.7698364 C27.8354836,22.5734119,26.567173,23.8416004,25.0657082,23.8416004z" class="icon"></path></g></g></svg>