<svg xmlns:xlink="http://www.w3.org/1999/xlink" data-v-03500956="" viewBox="0 0 20 20" xmlns="http://www.w3.org/2000/svg" class="icon icon__cart" width="20"  height="20" ><path data-v-03500956="" d="M5.625 18.75C6.48795 18.75 7.1875 18.0504 7.1875 17.1875C7.1875 16.3246 6.48795 15.625 5.625 15.625C4.76206 15.625 4.0625 16.3246 4.0625 17.1875C4.0625 18.0504 4.76206 18.75 5.625 18.75Z" fill="#111111"></path><path data-v-03500956="" d="M15 18.75C15.8629 18.75 16.5625 18.0504 16.5625 17.1875C16.5625 16.3246 15.8629 15.625 15 15.625C14.1371 15.625 13.4375 16.3246 13.4375 17.1875C13.4375 18.0504 14.1371 18.75 15 18.75Z" fill="#111111"></path><path data-v-03500956="" d="M3.125 5H16.7512C16.8427 5 16.9332 5.02011 17.0161 5.0589C17.099 5.0977 17.1724 5.15423 17.231 5.22451C17.2897 5.29479 17.3322 5.37709 17.3555 5.4656C17.3789 5.55412 17.3825 5.64668 17.3661 5.73674L16.0601 12.9242C16.0339 13.0683 15.958 13.1985 15.8456 13.2923C15.7332 13.3861 15.5915 13.4375 15.4451 13.4375H5.18665C5.04034 13.4375 4.89866 13.3862 4.78631 13.2924C4.67395 13.1987 4.59804 13.0686 4.57179 12.9246L2.65034 2.38788C2.6241 2.24394 2.54818 2.11377 2.43583 2.02005C2.32347 1.92633 2.1818 1.875 2.03548 1.875H0.9375" stroke="#111111" stroke-width="1.875px" stroke-linecap="round" stroke-linejoin="round" fill="none"></path></svg>