<svg xmlns:xlink="http://www.w3.org/1999/xlink" data-v-a05f8632="" viewBox="0 0 22 19" xmlns="http://www.w3.org/2000/svg" class="icon icon__telegram" width="22"  height="19" ><path data-v-a05f8632="" d="M20.4341 0.483897L1.16865 7.91463C-0.146251 8.4422 -0.138452 9.17559 0.928979 9.50262L5.73385 11.0023L7.5723 16.6389C7.79581 17.2558 7.68563 17.5005 8.33346 17.5005C8.83341 17.5005 9.05519 17.2725 9.33364 17.0005C9.51071 16.8273 10.562 15.8051 11.7359 14.6638L16.7339 18.3565C17.6536 18.8639 18.3177 18.601 18.5467 17.5023L21.8274 2.04205C22.1633 0.695381 21.3141 0.0845408 20.4341 0.483897ZM6.48792 10.6578L17.3181 3.82491C17.8588 3.49703 18.3545 3.67331 17.9475 4.03461L8.67401 12.4016L8.31293 16.2528L6.48792 10.6578Z" fill="#999999"></path></svg>