<svg xmlns:xlink="http://www.w3.org/1999/xlink" data-v-a05f8632="" viewBox="0 0 24 24" xmlns="http://www.w3.org/2000/svg" class="icon icon__instagram" width="24"  height="24" ><path data-v-a05f8632="" d="M12.0003 0.36377C8.84011 0.36377 8.44352 0.377588 7.20235 0.434073C5.9636 0.4908 5.11805 0.686921 4.37819 0.974679C3.61288 1.27189 2.96369 1.66947 2.31692 2.3165C1.66967 2.96328 1.2721 3.6125 0.973929 4.37759C0.685453 5.11771 0.489096 5.96353 0.43334 7.20183C0.377826 8.44304 0.363281 8.83989 0.363281 12.0001C0.363281 15.1604 0.377342 15.5558 0.433582 16.797C0.49055 18.0358 0.686666 18.8813 0.974172 19.6212C1.27162 20.3866 1.66918 21.0358 2.31619 21.6826C2.96272 22.3298 3.61191 22.7284 4.37674 23.0256C5.11708 23.3133 5.96287 23.5095 7.20138 23.5662C8.44255 23.6227 8.8389 23.6365 11.9988 23.6365C15.1592 23.6365 15.5546 23.6227 16.7958 23.5662C18.0345 23.5095 18.881 23.3133 19.6214 23.0256C20.3864 22.7284 21.0347 22.3298 21.6812 21.6826C22.3284 21.0358 22.726 20.3866 23.0242 19.6215C23.3102 18.8813 23.5066 18.0355 23.5648 16.7972C23.6205 15.556 23.6351 15.1604 23.6351 12.0001C23.6351 8.83989 23.6205 8.44328 23.5648 7.20207C23.5066 5.96328 23.3102 5.11771 23.0242 4.37783C22.726 3.6125 22.3284 2.96328 21.6812 2.3165C21.0339 1.66922 20.3867 1.27165 19.6206 0.974679C18.8788 0.686921 18.0328 0.4908 16.7941 0.434073C15.5529 0.377588 15.1577 0.36377 11.9966 0.36377H12.0003ZM10.9564 2.46074C11.2662 2.46025 11.6119 2.46074 12.0003 2.46074C15.1071 2.46074 15.4753 2.47189 16.7022 2.52765C17.8367 2.57953 18.4524 2.7691 18.8626 2.92838C19.4056 3.13928 19.7928 3.39141 20.1998 3.79868C20.607 4.20595 20.8591 4.59383 21.0705 5.13686C21.2298 5.54656 21.4196 6.16231 21.4712 7.29686C21.527 8.52353 21.5391 8.89201 21.5391 11.9975C21.5391 15.1029 21.527 15.4714 21.4712 16.6981C21.4194 17.8326 21.2298 18.4484 21.0705 18.8581C20.8596 19.4011 20.607 19.7878 20.1998 20.1948C19.7925 20.6021 19.4059 20.8542 18.8626 21.0651C18.4529 21.2251 17.8367 21.4142 16.7022 21.4661C15.4756 21.5218 15.1071 21.5339 12.0003 21.5339C8.8932 21.5339 8.52497 21.5218 7.29834 21.4661C6.16383 21.4137 5.54809 21.2241 5.13768 21.0649C4.59467 20.8539 4.2068 20.6018 3.79954 20.1946C3.39228 19.7873 3.14017 19.4004 2.92878 18.8571C2.76951 18.4474 2.5797 17.8316 2.52806 16.6971C2.47231 15.4704 2.46116 15.1019 2.46116 11.9946C2.46116 8.88716 2.47231 8.52062 2.52806 7.29395C2.57994 6.15941 2.76951 5.54365 2.92878 5.13347C3.13968 4.59044 3.39228 4.20256 3.79954 3.79528C4.2068 3.38801 4.59467 3.13589 5.13768 2.9245C5.54785 2.7645 6.16383 2.57541 7.29834 2.52328C8.37177 2.4748 8.78775 2.46025 10.9564 2.45783V2.46074ZM18.2115 4.39286C17.4406 4.39286 16.8151 5.01759 16.8151 5.78874C16.8151 6.55965 17.4406 7.1851 18.2115 7.1851C18.9824 7.1851 19.6078 6.55965 19.6078 5.78874C19.6078 5.01783 18.9824 4.39237 18.2115 4.39237V4.39286ZM12.0003 6.02437C8.70024 6.02437 6.02469 8.70001 6.02469 12.0001C6.02469 15.3003 8.70024 17.9747 12.0003 17.9747C15.3003 17.9747 17.9749 15.3003 17.9749 12.0001C17.9749 8.70001 15.3 6.02437 12 6.02437H12.0003ZM12.0003 8.12134C14.1423 8.12134 15.8789 9.85783 15.8789 12.0001C15.8789 14.1422 14.1423 15.8789 12.0003 15.8789C9.85802 15.8789 8.12159 14.1422 8.12159 12.0001C8.12159 9.85783 9.85802 8.12134 12.0003 8.12134Z" fill="#999999"></path></svg>